<svg width="256" height="256" viewBox="0 0 256 256" fill="none" xmlns="http://www.w3.org/2000/svg">
  <circle cx="128" cy="128" r="128" fill="#FF007A"/>
  <path d="M96.8 73.6c-2.4-0.8-4.8 0-6.4 1.6-1.6 2.4-1.6 5.6 0 8l24 36.8c0.8 1.6 2.4 2.4 4 2.4h8c1.6 0 3.2-0.8 4-2.4l24-36.8c1.6-2.4 1.6-5.6 0-8-1.6-1.6-4-2.4-6.4-1.6-0.8 0-1.6 0.8-2.4 1.6l-22.4 34.4-22.4-34.4c-0.8-0.8-1.6-1.6-2.4-1.6z" fill="white"/>
  <path d="M159.2 136c-8.8 0-16 7.2-16 16s7.2 16 16 16 16-7.2 16-16-7.2-16-16-16zm0 24c-4.4 0-8-3.6-8-8s3.6-8 8-8 8 3.6 8 8-3.6 8-8 8z" fill="white"/>
  <path d="M96.8 136c-8.8 0-16 7.2-16 16s7.2 16 16 16 16-7.2 16-16-7.2-16-16-16zm0 24c-4.4 0-8-3.6-8-8s3.6-8 8-8 8 3.6 8 8-3.6 8-8 8z" fill="white"/>
  <path d="M128 176c-8.8 0-16 7.2-16 16s7.2 16 16 16 16-7.2 16-16-7.2-16-16-16zm0 24c-4.4 0-8-3.6-8-8s3.6-8 8-8 8 3.6 8 8-3.6 8-8 8z" fill="white"/>
</svg>
